<mxfile>
    <diagram id="Ab3aqNk5cwcGSC_XJhQF" name="Page-1">
        <mxGraphModel dx="304" dy="387" grid="1" gridSize="10" guides="1" tooltips="1" connect="1" arrows="1" fold="1" page="1" pageScale="1" pageWidth="827" pageHeight="1169" math="0" shadow="0">
            <root>
                <mxCell id="0"/>
                <mxCell id="2"/>
                <mxCell id="3"/>
                <mxCell id="1" parent="2"/>
                <UserObject label="Cell #2" data_from_form="{&quot;node_title&quot;:&quot;Cell #2&quot;}" id="5">
                   <mxCell style="rounded=0;whiteSpace=wrap;html=1;" parent="1" vertex="1">
                        <mxGeometry x="250" y="100" width="120" height="60" as="geometry"/>
                    </mxCell>
                </UserObject>
            </root>
        </mxGraphModel>
    </diagram>
</mxfile>
